<?xml version="1.0" standalone="no"?>
<!DOCTYPE svg PUBLIC "-//W3C//DTD SVG 20010904//EN"
 "http://www.w3.org/TR/2001/REC-SVG-20010904/DTD/svg10.dtd">
<svg version="1.0" xmlns="http://www.w3.org/2000/svg"
 width="207.000000pt" height="207.000000pt" viewBox="0 0 207.000000 207.000000"
 preserveAspectRatio="xMidYMid meet">
<metadata>
Created by potrace 1.14, written by Peter Selinger 2001-2017
</metadata>
<g transform="translate(0.000000,207.000000) scale(0.100000,-0.100000)"
fill="#000000" stroke="none">
<path d="M1117 1753 c-144 -207 -1027 -1494 -1027 -1498 0 -3 129 -5 288 -4
l287 0 67 105 68 104 272 -2 273 -3 6 -45 c4 -25 10 -71 13 -102 l7 -58 283 0
282 0 -23 153 c-13 83 -57 377 -98 652 -41 275 -85 562 -96 638 l-22 137 -263
0 -263 0 -54 -77z m283 -323 c17 -155 4 -140 126 -140 l107 0 -65 -52 c-35
-29 -79 -65 -98 -79 l-34 -26 16 -129 c9 -71 15 -130 14 -132 -2 -1 -42 32
-91 73 -48 41 -89 75 -91 75 -3 0 -120 -87 -262 -193 -141 -106 -263 -197
-271 -201 -7 -5 34 57 92 136 58 80 144 200 192 267 l87 122 -22 24 c-13 13
-47 43 -77 67 l-53 43 127 5 128 5 79 117 c44 65 81 117 82 115 2 -1 8 -45 14
-97z"/>
</g>
</svg>
