<svg width="60" height="60" viewBox="0 0 60 60" fill="none" xmlns="http://www.w3.org/2000/svg">
<g clip-path="url(#clip0_253_206)">
<path fill-rule="evenodd" clip-rule="evenodd" d="M5.95117 50.7293V24.9629H9.91522V50.7293C9.91522 51.2549 10.124 51.7589 10.4958 52.1308C10.8674 52.5026 11.3716 52.7113 11.8972 52.7113H47.5736C48.0995 52.7113 48.6035 52.5026 48.9753 52.1308C49.3468 51.7589 49.5558 51.2549 49.5558 50.7293V24.9629H53.5199V50.7293C53.5199 52.3063 52.8933 53.8187 51.7781 54.9339C50.6633 56.049 49.1509 56.6754 47.5736 56.6754H11.8972C10.3202 56.6754 8.80783 56.049 7.69273 54.9339C6.57763 53.8187 5.95117 52.3063 5.95117 50.7293ZM49.5558 7.12463V20.9988L41.6276 13.0707V7.12463C41.6276 6.59895 41.8366 6.09483 42.2081 5.72311C42.5799 5.35142 43.084 5.14258 43.6098 5.14258H47.5736C48.0995 5.14258 48.6035 5.35142 48.9753 5.72311C49.3468 6.09483 49.5558 6.59895 49.5558 7.12463Z" fill="#1F69FF"/>
<path fill-rule="evenodd" clip-rule="evenodd" d="M26.9303 3.16063C27.6737 2.41748 28.6818 2 29.7329 2C30.7841 2 31.7921 2.41748 32.5355 3.16063L58.8845 29.5056C59.2569 29.878 59.4659 30.3826 59.4659 30.909C59.4659 31.4354 59.2569 31.94 58.8845 32.3124C58.5124 32.6845 58.0075 32.8935 57.4814 32.8935C56.955 32.8935 56.4501 32.6845 56.078 32.3124L29.7329 5.9632L3.3878 32.3124C3.01563 32.6845 2.51086 32.8935 1.98453 32.8935C1.4582 32.8935 0.953427 32.6845 0.581256 32.3124C0.209084 31.94 0 31.4354 0 30.909C0 30.3826 0.209084 29.878 0.581256 29.5056L26.9303 3.16063Z" fill="#1F69FF"/>
</g>
<defs>
<clipPath id="clip0_253_206">
<rect width="59.47" height="59.47" fill="white"/>
</clipPath>
</defs>
</svg>
