<svg width="60" height="60" viewBox="0 0 60 60" fill="none" xmlns="http://www.w3.org/2000/svg">
<mask id="mask0_253_187" style="mask-type:luminance" maskUnits="userSpaceOnUse" x="0" y="0" width="60" height="60">
<path d="M59.4659 0H0V59.4659H59.4659V0Z" fill="white"/>
</mask>
<g mask="url(#mask0_253_187)">
<path d="M52.0326 3.71662C53.0183 3.71662 53.9636 4.10819 54.6607 4.80518C55.3576 5.50218 55.7492 6.44752 55.7492 7.43323V52.0326C55.7492 53.0183 55.3576 53.9636 54.6607 54.6607C53.9636 55.3576 53.0183 55.7492 52.0326 55.7492H7.43323C6.44752 55.7492 5.50218 55.3576 4.80518 54.6607C4.10819 53.9636 3.71662 53.0183 3.71662 52.0326V7.43323C3.71662 6.44752 4.10819 5.50218 4.80518 4.80518C5.50218 4.10819 6.44752 3.71662 7.43323 3.71662H52.0326ZM7.43323 0C5.46183 0 3.57115 0.783143 2.17714 2.17714C0.783143 3.57115 0 5.46183 0 7.43323V52.0326C0 54.0041 0.783143 55.8948 2.17714 57.2888C3.57115 58.6826 5.46183 59.4659 7.43323 59.4659H52.0326C54.0041 59.4659 55.8948 58.6826 57.2888 57.2888C58.6826 55.8948 59.4659 54.0041 59.4659 52.0326V7.43323C59.4659 5.46183 58.6826 3.57115 57.2888 2.17714C55.8948 0.783143 54.0041 0 52.0326 0H7.43323Z" fill="#1F69FF"/>
<path d="M33.1895 24.485L24.6784 25.5516L24.3736 26.964L26.0461 27.2724C27.1387 27.5326 27.3543 27.9266 27.1165 29.0156L24.3736 41.9046C23.6526 45.2384 24.7638 46.8069 27.3766 46.8069C29.4021 46.8069 31.7547 45.8704 32.8214 44.5846L33.1485 43.0382C32.4051 43.6923 31.32 43.9525 30.5988 43.9525C29.5768 43.9525 29.2053 43.2353 29.4689 41.9718L33.1895 24.485ZM33.4495 16.7247C33.4495 17.7104 33.0581 18.6557 32.361 19.3527C31.6641 20.0497 30.7186 20.4413 29.7328 20.4413C28.7471 20.4413 27.8019 20.0497 27.1049 19.3527C26.4079 18.6557 26.0163 17.7104 26.0163 16.7247C26.0163 15.739 26.4079 14.7936 27.1049 14.0966C27.8019 13.3996 28.7471 13.0081 29.7328 13.0081C30.7186 13.0081 31.6641 13.3996 32.361 14.0966C33.0581 14.7936 33.4495 15.739 33.4495 16.7247Z" fill="#1F69FF"/>
</g>
</svg>
