<svg width="60" height="60" viewBox="0 0 60 60" fill="none" xmlns="http://www.w3.org/2000/svg">
<g clip-path="url(#clip0_253_205)">
<path d="M13.8163 33.2264C15.7638 37.1735 18.4026 41.1059 21.1008 44.6365C23.6605 47.9652 26.3974 51.1537 29.2997 54.1881C32.2022 51.1537 34.939 47.9652 37.4986 44.6365C40.1967 41.1059 42.8355 37.1735 44.7832 33.2264C46.7529 29.2385 47.8828 25.5034 47.8828 22.2997C47.8828 17.3712 45.9249 12.6445 42.44 9.15947C38.955 5.67446 34.2283 3.71662 29.2997 3.71662C24.3712 3.71662 19.6445 5.67446 16.1595 9.15947C12.6745 12.6445 10.7166 17.3712 10.7166 22.2997C10.7166 25.5034 11.8502 29.2385 13.8163 33.2264ZM29.2997 59.4659C29.2997 59.4659 7 38.3331 7 22.2997C7 16.3855 9.34944 10.7134 13.5314 6.53142C17.7134 2.34943 23.3855 0 29.2997 0C35.214 0 40.8859 2.34943 45.0681 6.53142C49.2499 10.7134 51.5994 16.3855 51.5994 22.2997C51.5994 38.3331 29.2997 59.4659 29.2997 59.4659Z" fill="#1F69FF"/>
<path d="M29.2993 29.733C31.2707 29.733 33.1614 28.9497 34.5555 27.5559C35.9492 26.1618 36.7325 24.2712 36.7325 22.2998C36.7325 20.3283 35.9492 18.4377 34.5555 17.0436C33.1614 15.6497 31.2707 14.8665 29.2993 14.8665C27.3279 14.8665 25.4372 15.6497 24.0432 17.0436C22.6492 18.4377 21.866 20.3283 21.866 22.2998C21.866 24.2712 22.6492 26.1618 24.0432 27.5559C25.4372 28.9497 27.3279 29.733 29.2993 29.733ZM29.2993 33.4496C26.3421 33.4496 23.5061 32.275 21.4151 30.1838C19.3241 28.0929 18.1494 25.2569 18.1494 22.2998C18.1494 19.3426 19.3241 16.5066 21.4151 14.4156C23.5061 12.3246 26.3421 11.1499 29.2993 11.1499C32.2564 11.1499 35.0924 12.3246 37.1833 14.4156C39.2745 16.5066 40.4491 19.3426 40.4491 22.2998C40.4491 25.2569 39.2745 28.0929 37.1833 30.1838C35.0924 32.275 32.2564 33.4496 29.2993 33.4496Z" fill="#1F69FF"/>
</g>
<defs>
<clipPath id="clip0_253_205">
<rect width="59.47" height="59.47" fill="white"/>
</clipPath>
</defs>
</svg>
