<svg width="60" height="60" viewBox="0 0 60 60" fill="blue" xmlns="http://www.w3.org/2000/svg">
<mask id="mask0_253_200" style="mask-type:luminance" maskUnits="userSpaceOnUse" x="0" y="0" width="60" height="60">
<path d="M59.4659 0H0V59.4659H59.4659V0Z" fill="white"/>
</mask>
<g mask="url(#mask0_253_200)">
<path d="M10.6768 3.8296C10.6768 2.81393 11.0802 1.83985 11.7984 1.12166C12.5166 0.403473 13.4907 0 14.5064 0H45.1432C46.1589 0 47.133 0.403473 47.8511 1.12166C48.5693 1.83985 48.9728 2.81393 48.9728 3.8296V28.722V53.6144H54.7172C55.2249 53.6144 55.712 53.816 56.071 54.1751C56.4304 54.5344 56.632 55.0215 56.632 55.5292C56.632 56.0369 56.4304 56.524 56.071 56.8831C55.712 57.2424 55.2249 57.444 54.7172 57.444H4.93238C4.42454 57.444 3.93749 57.2424 3.5784 56.8831C3.21931 56.524 3.01758 56.0369 3.01758 55.5292C3.01758 55.0215 3.21931 54.5344 3.5784 54.1751C3.93749 53.816 4.42454 53.6144 4.93238 53.6144H10.6768V3.8296ZM14.5064 53.6144H45.1432V3.8296H14.5064V53.6144Z" fill="#1F69FF"/>
<path d="M33.6523 30.6367C33.6523 31.6525 34.0559 32.6266 34.7743 33.3447C35.4924 34.0628 36.4665 34.4663 37.4819 34.4663C38.4977 34.4663 39.4718 34.0628 40.1899 33.3447C40.9083 32.6266 41.3115 31.6525 41.3115 30.6367C41.3115 29.621 40.9083 28.6469 40.1899 27.9288C39.4718 27.2106 38.4977 26.8071 37.4819 26.8071C36.4665 26.8071 35.4924 27.2106 34.7743 27.9288C34.0559 28.6469 33.6523 29.621 33.6523 30.6367Z" fill="#1F69FF"/>
</g>
</svg>
