<svg width="60" height="61" viewBox="0 0 60 61" fill="none" xmlns="http://www.w3.org/2000/svg">
<g clip-path="url(#clip0_203_331)">
<mask id="mask0_203_331" style="mask-type:luminance" maskUnits="userSpaceOnUse" x="0" y="0" width="60" height="61">
<path d="M59.4659 0.545898H0V60.0118H59.4659V0.545898Z" fill="white"/>
</mask>
<g mask="url(#mask0_203_331)">
<mask id="mask1_203_331" style="mask-type:luminance" maskUnits="userSpaceOnUse" x="0" y="0" width="60" height="61">
<path d="M59.4659 0.545898H0V60.0118H59.4659V0.545898Z" fill="white"/>
</mask>
<g mask="url(#mask1_203_331)">
<path d="M52.0326 4.26251C53.0183 4.26251 53.9636 4.65408 54.6607 5.35108C55.3576 6.04808 55.7492 6.99341 55.7492 7.97913V52.5785C55.7492 53.5642 55.3576 54.5095 54.6607 55.2066C53.9636 55.9035 53.0183 56.2951 52.0326 56.2951H7.43323C6.44752 56.2951 5.50218 55.9035 4.80518 55.2066C4.10818 54.5095 3.71662 53.5642 3.71662 52.5785V7.97913C3.71662 6.99341 4.10818 6.04808 4.80518 5.35108C5.50218 4.65408 6.44752 4.26251 7.43323 4.26251H52.0326ZM7.43323 0.545898C5.46183 0.545898 3.57115 1.32904 2.17714 2.72304C0.783143 4.11705 0 6.00772 0 7.97913V52.5785C0 54.55 0.783143 56.4407 2.17714 57.8347C3.57115 59.2285 5.46183 60.0118 7.43323 60.0118H52.0326C54.0041 60.0118 55.8948 59.2285 57.2888 57.8347C58.6826 56.4407 59.4659 54.55 59.4659 52.5785V7.97913C59.4659 6.00772 58.6826 4.11705 57.2888 2.72304C55.8948 1.32904 54.0041 0.545898 52.0326 0.545898H7.43323Z" fill="#E9292D"/>
<path d="M33.1895 25.0309L24.6784 26.0976L24.3736 27.5099L26.0461 27.8184C27.1387 28.0786 27.3543 28.4725 27.1165 29.5615L24.3736 42.4506C23.6526 45.7844 24.7638 47.3529 27.3766 47.3529C29.4021 47.3529 31.7547 46.4164 32.8214 45.1305L33.1485 43.5841C32.4051 44.2383 31.32 44.4985 30.5988 44.4985C29.5768 44.4985 29.2053 43.7812 29.4689 42.5177L33.1895 25.0309ZM33.4495 17.2706C33.4495 18.2564 33.0581 19.2017 32.361 19.8987C31.6641 20.5957 30.7186 20.9872 29.7328 20.9872C28.7471 20.9872 27.8019 20.5957 27.1049 19.8987C26.4079 19.2017 26.0163 18.2564 26.0163 17.2706C26.0163 16.2849 26.4079 15.3396 27.1049 14.6426C27.8019 13.9456 28.7471 13.554 29.7328 13.554C30.7186 13.554 31.6641 13.9456 32.361 14.6426C33.0581 15.3396 33.4495 16.2849 33.4495 17.2706Z" fill="#E9292D"/>
</g>
</g>
</g>
<defs>
<clipPath id="clip0_203_331">
<rect width="59.4659" height="59.4659" fill="white" transform="translate(0 0.545898)"/>
</clipPath>
</defs>
</svg>
