<svg width="49" height="49" viewBox="0 0 49 49" fill="none" xmlns="http://www.w3.org/2000/svg">
<path d="M24.3804 11.8761C17.4635 11.8761 11.8843 17.4565 11.8843 24.3749C11.8843 31.2933 17.4635 36.8738 24.3804 36.8738C31.2972 36.8738 36.8764 31.2933 36.8764 24.3749C36.8764 17.4565 31.2972 11.8761 24.3804 11.8761ZM24.3804 32.5008C19.9105 32.5008 16.2563 28.8567 16.2563 24.3749C16.2563 19.8932 19.8996 16.249 24.3804 16.249C28.8611 16.249 32.5044 19.8932 32.5044 24.3749C32.5044 28.8567 28.8502 32.5008 24.3804 32.5008ZM40.3022 11.3648C40.3022 12.9856 38.9972 14.2801 37.3876 14.2801C35.7671 14.2801 34.4729 12.9748 34.4729 11.3648C34.4729 9.75486 35.778 8.4495 37.3876 8.4495C38.9972 8.4495 40.3022 9.75486 40.3022 11.3648ZM48.5786 14.3236C48.3937 10.4184 47.5019 6.95921 44.6416 4.10917C41.7922 1.25913 38.3337 0.367133 34.4294 0.171329C30.4054 -0.0571096 18.3444 -0.0571096 14.3204 0.171329C10.427 0.356255 6.96854 1.24825 4.10826 4.09829C1.24797 6.94834 0.367051 10.4075 0.171291 14.3128C-0.0570969 18.3376 -0.0570969 30.4013 0.171291 34.4262C0.356176 38.3314 1.24797 41.7906 4.10826 44.6407C6.96854 47.4907 10.4161 48.3827 14.3204 48.5785C18.3444 48.807 30.4054 48.807 34.4294 48.5785C38.3337 48.3936 41.7922 47.5016 44.6416 44.6407C47.491 41.7906 48.3828 38.3314 48.5786 34.4262C48.8069 30.4013 48.8069 18.3485 48.5786 14.3236ZM43.38 38.7448C42.5317 40.8769 40.8895 42.5195 38.747 43.3788C35.5387 44.6516 27.9258 44.3578 24.3804 44.3578C20.8349 44.3578 13.2111 44.6407 10.0137 43.3788C7.88209 42.5303 6.23987 40.8878 5.3807 38.7448C4.10826 35.5358 4.4019 27.9212 4.4019 24.3749C4.4019 20.8287 4.11913 13.2032 5.3807 10.0051C6.229 7.87297 7.87121 6.23039 10.0137 5.37102C13.222 4.09829 20.8349 4.392 24.3804 4.392C27.9258 4.392 35.5496 4.10917 38.747 5.37102C40.8786 6.21951 42.5208 7.86209 43.38 10.0051C44.6525 13.2141 44.3588 20.8287 44.3588 24.3749C44.3588 27.9212 44.6525 35.5466 43.38 38.7448Z" fill="#E9292D"/>
</svg>
