<svg width="54" height="54" viewBox="0 0 54 54" fill="none" xmlns="http://www.w3.org/2000/svg">
<g clip-path="url(#clip0_2066_171)">
<path d="M0 3.84984C0 1.72336 1.76703 0 3.94727 0H49.8027C51.983 0 53.75 1.72336 53.75 3.84984V49.9002C53.75 52.0266 51.983 53.75 49.8027 53.75H3.94727C1.76703 53.75 0 52.0266 0 49.9002V3.84984ZM16.6054 44.9955V20.724H8.53953V44.9955H16.6054ZM12.5741 17.4083C15.3859 17.4083 17.1362 15.5472 17.1362 13.2158C17.0858 10.834 15.3893 9.02328 12.6279 9.02328C9.86648 9.02328 8.0625 10.8373 8.0625 13.2158C8.0625 15.5472 9.81273 17.4083 12.5204 17.4083H12.5741ZM29.062 44.9955V31.4404C29.062 30.7148 29.1157 29.9891 29.3307 29.4718C29.9119 28.0239 31.2388 26.5223 33.4695 26.5223C36.3888 26.5223 37.5545 28.7462 37.5545 32.0115V44.9955H45.6203V31.0742C45.6203 23.6164 41.6428 20.1495 36.335 20.1495C32.0552 20.1495 30.137 22.5011 29.062 24.1573V24.2413H29.0082C29.026 24.2132 29.044 24.1852 29.062 24.1573V20.724H20.9995C21.1002 23.0016 20.9995 44.9955 20.9995 44.9955H29.062Z" fill="#E9292D"/>
</g>
<defs>
<clipPath id="clip0_2066_171">
<rect width="53.75" height="53.75" fill="white"/>
</clipPath>
</defs>
</svg>
