<svg width="60" height="60" viewBox="0 0 60 60" fill="none" xmlns="http://www.w3.org/2000/svg">
<path d="M52 25.5042C47.6748 25.5145 43.4557 24.1734 39.9387 21.6702V39.1278C39.9375 42.3611 38.9436 45.517 37.0898 48.1735C35.2359 50.83 32.6106 52.8605 29.5649 53.9934C26.5191 55.1263 23.1981 55.3077 20.0458 54.5133C16.8936 53.7189 14.0604 51.9866 11.9251 49.5479C9.78976 47.1093 8.45412 44.0807 8.09674 40.8669C7.73936 37.6532 8.37728 34.4075 9.9252 31.564C11.4731 28.7205 13.8572 26.4146 16.7588 24.9546C19.6604 23.4947 22.941 22.9503 26.1622 23.3943V32.1749C24.6882 31.7139 23.1054 31.7277 21.6398 32.2145C20.1742 32.7013 18.9008 33.6361 18.0014 34.8854C17.102 36.1346 16.6226 37.6346 16.6317 39.1709C16.6409 40.7072 17.138 42.2014 18.0521 43.4401C18.9662 44.6787 20.2506 45.5985 21.7218 46.0681C23.1931 46.5377 24.776 46.533 26.2444 46.0548C27.7128 45.5766 28.9917 44.6492 29.8985 43.4052C30.8052 42.1612 31.2934 40.6641 31.2934 39.1278V5H39.9387C39.9327 5.72591 39.9939 6.45082 40.1215 7.16559C40.4219 8.76119 41.0465 10.2791 41.9572 11.6264C42.8678 12.9738 44.0454 14.1222 45.4177 15.0016C47.3702 16.2852 49.6593 16.9693 52 16.9689V25.5042Z" fill="#E9292D"/>
</svg>
