<svg width="59" height="59" viewBox="0 0 59 59" fill="none" xmlns="http://www.w3.org/2000/svg">
<circle cx="29.5" cy="29.5" r="29.5" fill="#9F171A"/>
<path d="M41.4056 16.9959C39.754 15.3365 37.7872 14.0209 35.6198 13.1259C33.4524 12.2308 31.1277 11.7741 28.7811 11.7823C18.9486 11.7823 10.9353 19.7573 10.9263 29.5478C10.9263 32.6835 11.7504 35.7341 13.3062 38.435L10.7822 47.645L20.2478 45.1749C22.8663 46.5936 25.7999 47.3371 28.7811 47.3379H28.7901C38.6249 47.3379 46.636 39.3629 46.645 29.5635C46.6472 27.228 46.1852 24.9152 45.2856 22.7583C44.386 20.6013 43.0688 18.6429 41.4056 16.9959ZM28.7811 44.3299C26.122 44.3308 23.5118 43.6185 21.2249 42.2678L20.6846 41.9451L15.0692 43.4109L16.5687 37.9576L16.2175 37.395C14.731 35.0422 13.9449 32.3182 13.9502 29.5388C13.9502 21.4115 20.608 14.7813 28.7901 14.7813C30.7394 14.7779 32.6701 15.1585 34.4709 15.9014C36.2716 16.6442 37.9069 17.7345 39.2824 19.1095C40.6627 20.4791 41.7569 22.1072 42.5019 23.8999C43.247 25.6926 43.6281 27.6144 43.6234 29.5545C43.6144 37.711 36.9565 44.3299 28.7811 44.3299ZM36.9205 33.2708C36.4769 33.0489 34.2862 31.9752 33.8742 31.8228C33.4644 31.6771 33.1649 31.6009 32.8722 32.0447C32.5728 32.4863 31.7172 33.4927 31.4605 33.7818C31.2038 34.0799 30.9381 34.1136 30.4923 33.8939C30.0488 33.6698 28.61 33.2035 26.9078 31.6861C25.5794 30.5094 24.6901 29.0524 24.4244 28.6109C24.1677 28.1671 24.3996 27.9295 24.6225 27.7076C24.8184 27.5103 25.0661 27.1876 25.289 26.9321C25.5141 26.6765 25.5884 26.4883 25.7348 26.1924C25.8811 25.892 25.8113 25.6365 25.701 25.4146C25.5884 25.1927 24.6991 23.0029 24.3231 22.1197C23.9628 21.2478 23.5958 21.3689 23.3211 21.3577C23.0644 21.342 22.765 21.342 22.4655 21.342C22.2394 21.3476 22.0169 21.3996 21.8119 21.4949C21.6069 21.5902 21.424 21.7266 21.2745 21.8956C20.8647 22.3394 19.7186 23.413 19.7186 25.6029C19.7186 27.7928 21.3172 29.8974 21.5424 30.1956C21.763 30.4937 24.6811 34.9743 29.1594 36.9019C30.2176 37.3614 31.0507 37.6326 31.7014 37.8388C32.7709 38.1795 33.7368 38.1279 34.5068 38.0181C35.3624 37.8881 37.1434 36.9422 37.5194 35.9044C37.8887 34.8644 37.8887 33.9768 37.7761 33.7908C37.6658 33.6025 37.3663 33.4927 36.9205 33.2708Z" fill="#F5F5F5"/>
</svg>
