<svg width="60" height="60" viewBox="0 0 60 60" fill="none" xmlns="http://www.w3.org/2000/svg">
<g clip-path="url(#clip0_2066_107)">
<path d="M59.4022 18.0001C59.4022 18.0001 58.8162 13.8634 57.0115 12.047C54.7264 9.65637 52.1717 9.64465 50.9998 9.50403C42.6092 8.89465 30.0116 8.89465 30.0116 8.89465H29.9882C29.9882 8.89465 17.3906 8.89465 8.99997 9.50403C7.8281 9.64465 5.27342 9.65637 2.98827 12.047C1.18359 13.8634 0.609373 18.0001 0.609373 18.0001C0.609373 18.0001 0 22.8634 0 27.7149V32.2618C0 37.1133 0.597654 41.9766 0.597654 41.9766C0.597654 41.9766 1.18359 46.1133 2.97655 47.9297C5.2617 50.3203 8.26169 50.2383 9.59763 50.4961C14.4023 50.9531 29.9999 51.0937 29.9999 51.0937C29.9999 51.0937 42.6092 51.0703 50.9998 50.4726C52.1717 50.332 54.7264 50.3203 57.0115 47.9297C58.8162 46.1133 59.4022 41.9766 59.4022 41.9766C59.4022 41.9766 59.9998 37.125 59.9998 32.2618V27.7149C59.9998 22.8634 59.4022 18.0001 59.4022 18.0001ZM23.8007 37.7813V20.9181L40.0077 29.379L23.8007 37.7813Z" fill="#E9292D"/>
</g>
<defs>
<clipPath id="clip0_2066_107">
<rect width="59.9998" height="59.9998" fill="white"/>
</clipPath>
</defs>
</svg>
