<svg width="46" height="45" viewBox="0 0 46 45" fill="none" xmlns="http://www.w3.org/2000/svg">
<g clip-path="url(#clip0_4_17)">
<path d="M30.8315 14.7617C30.6711 13.1452 29.9831 11.8894 28.7674 10.9942C27.5516 10.0991 25.9016 9.65157 23.8175 9.65157C22.4013 9.65157 21.2056 9.85197 20.2303 10.2528C19.2551 10.6402 18.5069 11.1813 17.9859 11.876C17.4782 12.5707 17.2244 13.359 17.2244 14.2407C17.1976 14.9755 17.3513 15.6168 17.6853 16.1645C18.0326 16.7123 18.5069 17.1866 19.1081 17.5874C19.7093 17.9748 20.404 18.3155 21.1923 18.6094C21.9805 18.89 22.8222 19.1305 23.7173 19.3309L27.4046 20.2126C29.1949 20.6134 30.8381 21.1478 32.3345 21.8158C33.8308 22.4838 35.1267 23.3054 36.2222 24.2807C37.3177 25.256 38.1661 26.4049 38.7673 27.7276C39.3818 29.0502 39.6958 30.5666 39.7092 32.2766C39.6958 34.7883 39.0545 36.966 37.7853 38.8097C36.5295 40.64 34.7125 42.0628 32.3345 43.0782C29.9697 44.0802 27.1174 44.5812 23.7774 44.5812C20.4641 44.5812 17.5784 44.0735 15.1202 43.0581C12.6753 42.0428 10.7648 40.5398 9.38874 38.5491C8.02603 36.5451 7.31127 34.0669 7.24447 31.1143H15.6412C15.7347 32.4904 16.1288 33.6394 16.8236 34.5612C17.5316 35.4697 18.4735 36.1577 19.6492 36.6253C20.8382 37.0795 22.1809 37.3067 23.6772 37.3067C25.1468 37.3067 26.4227 37.0929 27.5048 36.6654C28.6004 36.2379 29.4487 35.6434 30.0499 34.8818C30.6511 34.1203 30.9517 33.2452 30.9517 32.2566C30.9517 31.3348 30.6778 30.5599 30.1301 29.932C29.5957 29.3041 28.8074 28.7697 27.7654 28.3288C26.7366 27.8879 25.4741 27.4871 23.9778 27.1264L19.5089 26.0041C16.0487 25.1625 13.3166 23.8465 11.3126 22.0563C9.30858 20.266 8.31327 17.8546 8.32663 14.8219C8.31327 12.3369 8.97459 10.1659 10.3106 8.30889C11.6599 6.45186 13.5103 5.0023 15.8616 3.96023C18.213 2.91815 20.885 2.39711 23.8776 2.39711C26.9237 2.39711 29.5823 2.91815 31.8535 3.96023C34.1381 5.0023 35.9149 6.45186 37.1841 8.30889C38.4533 10.1659 39.108 12.3169 39.148 14.7617H30.8315Z" fill="#4067E3"/>
</g>
<defs>
<clipPath id="clip0_4_17">
<rect width="45" height="45" fill="white" transform="translate(0.959473)"/>
</clipPath>
</defs>
</svg>
