<svg width="193" height="86" viewBox="0 0 193 86" fill="none" xmlns="http://www.w3.org/2000/svg">
<g clip-path="url(#clip0_4_15)">
<path d="M24.1094 14.8731C23.9597 13.3644 23.3176 12.1922 22.1829 11.3568C21.0482 10.5214 19.5082 10.1036 17.563 10.1036C16.2412 10.1036 15.1252 10.2907 14.215 10.6648C13.3047 11.0264 12.6064 11.5314 12.1201 12.1798C11.6463 12.8282 11.4094 13.5639 11.4094 14.3868C11.3845 15.0726 11.5279 15.6712 11.8396 16.1824C12.1638 16.6937 12.6064 17.1363 13.1676 17.5104C13.7287 17.872 14.3771 18.19 15.1128 18.4643C15.8485 18.7261 16.634 18.9506 17.4695 19.1376L20.911 19.9606C22.5819 20.3347 24.1156 20.8335 25.5122 21.4569C26.9087 22.0804 28.1182 22.8472 29.1407 23.7575C30.1632 24.6678 30.955 25.7401 31.5161 26.9746C32.0897 28.209 32.3827 29.6243 32.3952 31.2204C32.3827 33.5646 31.7842 35.5971 30.5996 37.3179C29.4275 39.0261 27.7317 40.3541 25.5122 41.3018C23.3051 42.237 20.6429 42.7046 17.5256 42.7046C14.4332 42.7046 11.7398 42.2308 9.44549 41.2831C7.16361 40.3354 5.3805 38.9326 4.09616 37.0747C2.82429 35.2043 2.15719 32.8913 2.09484 30.1355H9.93179C10.0191 31.4199 10.3869 32.4922 11.0353 33.3526C11.6962 34.2005 12.5753 34.8427 13.6726 35.2791C14.7823 35.7031 16.0355 35.9151 17.4321 35.9151C18.8037 35.9151 19.9945 35.7155 21.0045 35.3165C22.027 34.9175 22.8188 34.3626 23.3799 33.6519C23.941 32.9411 24.2216 32.1244 24.2216 31.2017C24.2216 30.3413 23.966 29.6181 23.4547 29.032C22.956 28.446 22.2203 27.9472 21.2477 27.5357C20.2875 27.1242 19.1092 26.7501 17.7126 26.4135L13.5416 25.366C10.3121 24.5805 7.76213 23.3523 5.89174 21.6814C4.02135 20.0105 3.09238 17.7598 3.10485 14.9292C3.09238 12.61 3.70961 10.5837 4.95654 8.85047C6.21594 7.11724 7.94294 5.76432 10.1375 4.79172C12.3321 3.81911 14.826 3.33281 17.6191 3.33281C20.4621 3.33281 22.9435 3.81911 25.0633 4.79172C27.1955 5.76432 28.8539 7.11724 30.0385 8.85047C31.2231 10.5837 31.8341 12.5913 31.8715 14.8731H24.1094ZM45.8854 42.7046C44.0524 42.7046 42.419 42.3866 40.985 41.7507C39.551 41.1023 38.4163 40.1484 37.5809 38.889C36.7579 37.6171 36.3464 36.0335 36.3464 34.1382C36.3464 32.5421 36.6394 31.2017 37.2255 30.1168C37.8116 29.032 38.6096 28.1592 39.6196 27.4983C40.6296 26.8374 41.7768 26.3386 43.0611 26.002C44.3579 25.6653 45.7171 25.4284 47.1386 25.2912C48.8095 25.1167 50.1561 24.9546 51.1786 24.8049C52.2011 24.6428 52.943 24.4059 53.4044 24.0942C53.8658 23.7824 54.0964 23.3211 54.0964 22.7101V22.5979C54.0964 21.4133 53.7224 20.4968 52.9742 19.8484C52.2385 19.2 51.1911 18.8758 49.8319 18.8758C48.398 18.8758 47.257 19.1937 46.4091 19.8297C45.5612 20.4531 45.0001 21.2387 44.7258 22.1864L37.3564 21.5878C37.7305 19.8421 38.4662 18.3334 39.5635 17.0615C40.6608 15.7772 42.0761 14.7921 43.8093 14.1063C45.555 13.408 47.575 13.0589 49.8694 13.0589C51.4654 13.0589 52.9929 13.2459 54.4518 13.62C55.9232 13.9941 57.2262 14.5739 58.3609 15.3594C59.5081 16.145 60.4121 17.155 61.073 18.3895C61.7339 19.6115 62.0643 21.0766 62.0643 22.7849V42.1622H54.5079V38.1782H54.2835C53.8221 39.076 53.2049 39.8678 52.4318 40.5536C51.6587 41.227 50.7297 41.7569 49.6449 42.1435C48.5601 42.5175 47.3069 42.7046 45.8854 42.7046ZM48.1673 37.2056C49.3394 37.2056 50.3744 36.9749 51.2721 36.5136C52.1699 36.0398 52.8745 35.4038 53.3857 34.6058C53.8969 33.8077 54.1526 32.9037 54.1526 31.8937V28.845C53.9032 29.0071 53.5603 29.1567 53.1238 29.2939C52.6999 29.4186 52.2198 29.537 51.6836 29.6492C51.1475 29.749 50.6113 29.8425 50.0751 29.9298C49.5389 30.0046 49.0526 30.0732 48.6162 30.1355C47.681 30.2727 46.8643 30.4909 46.166 30.7902C45.4677 31.0894 44.9253 31.4947 44.5387 32.0059C44.1522 32.5047 43.9589 33.1282 43.9589 33.8763C43.9589 34.9612 44.3517 35.7904 45.1373 36.364C45.9353 36.9251 46.9453 37.2056 48.1673 37.2056ZM68.246 42.1622V13.4329H75.8398V18.5017H76.1764C76.775 16.8183 77.7725 15.4904 79.1691 14.5178C80.5656 13.5452 82.2365 13.0589 84.1817 13.0589C86.1519 13.0589 87.829 13.5514 89.2131 14.5365C90.5972 15.5091 91.5199 16.8308 91.9813 18.5017H92.2805C92.8666 16.8558 93.9265 15.5402 95.4602 14.5552C97.0064 13.5576 98.8331 13.0589 100.94 13.0589C103.621 13.0589 105.797 13.913 107.468 15.6213C109.151 17.3171 109.993 19.7237 109.993 22.841V42.1622H102.044V24.4121C102.044 22.8161 101.62 21.619 100.772 20.821C99.9242 20.023 98.8643 19.6239 97.5924 19.6239C96.146 19.6239 95.0175 20.0853 94.207 21.008C93.3965 21.9183 92.9913 23.1216 92.9913 24.6179V42.1622H85.2665V24.2438C85.2665 22.8348 84.8613 21.7125 84.0508 20.8771C83.2528 20.0417 82.1991 19.6239 80.8898 19.6239C80.0045 19.6239 79.2065 19.8484 78.4957 20.2973C77.7974 20.7337 77.2426 21.3509 76.8311 22.149C76.4196 22.9345 76.2138 23.8573 76.2138 24.9171V42.1622H68.246ZM116.287 52.9356V13.4329H124.143V18.2585H124.498C124.847 17.4855 125.352 16.6999 126.013 15.9019C126.686 15.0913 127.559 14.418 128.632 13.8818C129.716 13.3332 131.063 13.0589 132.672 13.0589C134.766 13.0589 136.699 13.6075 138.47 14.7048C140.241 15.7896 141.656 17.4293 142.716 19.6239C143.776 21.8061 144.306 24.5431 144.306 27.835C144.306 31.0396 143.788 33.7454 142.753 35.9525C141.731 38.1471 140.334 39.8117 138.563 40.9464C136.805 42.0687 134.835 42.6298 132.653 42.6298C131.107 42.6298 129.791 42.3741 128.706 41.8629C127.634 41.3517 126.755 40.7095 126.069 39.9364C125.383 39.1508 124.86 38.359 124.498 37.561H124.255V52.9356H116.287ZM124.087 27.7976C124.087 29.5058 124.323 30.9959 124.797 32.2678C125.271 33.5397 125.957 34.531 126.855 35.2417C127.753 35.94 128.844 36.2891 130.128 36.2891C131.425 36.2891 132.522 35.9338 133.42 35.223C134.318 34.4998 134.997 33.5023 135.459 32.2304C135.932 30.946 136.169 29.4684 136.169 27.7976C136.169 26.1391 135.939 24.6802 135.477 23.4208C135.016 22.1614 134.336 21.1764 133.439 20.4656C132.541 19.7549 131.437 19.3995 130.128 19.3995C128.831 19.3995 127.734 19.7424 126.836 20.4282C125.951 21.114 125.271 22.0866 124.797 23.346C124.323 24.6054 124.087 26.0893 124.087 27.7976ZM157.585 3.85652V42.1622H149.617V3.85652H157.585ZM177.061 42.7233C174.106 42.7233 171.562 42.1248 169.43 40.9277C167.31 39.7182 165.676 38.0099 164.529 35.8028C163.382 33.5833 162.808 30.9585 162.808 27.9285C162.808 24.9733 163.382 22.3796 164.529 20.1476C165.676 17.9156 167.291 16.1762 169.373 14.9292C171.468 13.6823 173.925 13.0589 176.743 13.0589C178.638 13.0589 180.403 13.3644 182.036 13.9753C183.682 14.5739 185.116 15.4779 186.338 16.6874C187.572 17.8969 188.533 19.4182 189.218 21.2512C189.904 23.0717 190.247 25.2039 190.247 27.6479V29.8363H165.988V24.8984H182.747C182.747 23.7513 182.497 22.735 181.999 21.8497C181.5 20.9644 180.808 20.2723 179.922 19.7736C179.05 19.2623 178.033 19.0067 176.874 19.0067C175.664 19.0067 174.592 19.2873 173.657 19.8484C172.734 20.397 172.011 21.139 171.487 22.0741C170.963 22.9969 170.695 24.0256 170.683 25.1603V29.855C170.683 31.2765 170.945 32.5047 171.468 33.5397C172.004 34.5746 172.759 35.3726 173.731 35.9338C174.704 36.4949 175.857 36.7754 177.192 36.7754C178.077 36.7754 178.888 36.6507 179.623 36.4014C180.359 36.152 180.989 35.7779 181.512 35.2791C182.036 34.7804 182.435 34.1694 182.709 33.4461L190.079 33.9324C189.705 35.7031 188.938 37.2493 187.778 38.571C186.631 39.8803 185.147 40.9028 183.327 41.6385C181.519 42.3617 179.43 42.7233 177.061 42.7233Z" fill="#4067E3"/>
<path d="M2.84975 81.5946V55.6556H12.0956C14.1052 55.6556 15.7728 56.0017 17.0985 56.6941C18.4326 57.3865 19.429 58.3449 20.0876 59.5692C20.7462 60.7851 21.0755 62.191 21.0755 63.7868C21.0755 65.3743 20.742 66.7717 20.0749 67.9791C19.4163 69.1781 18.4199 70.1112 17.0858 70.7782C15.7602 71.4453 14.0925 71.7788 12.0829 71.7788H5.07889V68.4098H11.7283C12.9949 68.4098 14.025 68.2282 14.8187 67.8651C15.6208 67.5021 16.2077 66.9743 16.5792 66.282C16.9507 65.5896 17.1365 64.7579 17.1365 63.7868C17.1365 62.8074 16.9465 61.9588 16.5665 61.2411C16.195 60.5233 15.6082 59.9745 14.806 59.5945C14.0123 59.2061 12.9695 59.0119 11.6776 59.0119H6.76341V81.5946H2.84975ZM15.6546 69.8916L22.0634 81.5946H17.6051L11.323 69.8916H15.6546ZM33.6745 81.9872C31.7578 81.9872 30.1071 81.5777 28.7223 80.7587C27.346 79.9312 26.2821 78.7702 25.5306 77.2757C24.7875 75.7727 24.416 74.0122 24.416 71.9941C24.416 70.0014 24.7875 68.2451 25.5306 66.7252C26.2821 65.2054 27.3291 64.019 28.6716 63.1662C30.0226 62.3134 31.6016 61.887 33.4086 61.887C34.5062 61.887 35.5701 62.0685 36.6003 62.4316C37.6304 62.7947 38.555 63.3647 39.374 64.1415C40.1931 64.9183 40.839 65.9273 41.3119 67.1685C41.7847 68.4013 42.0211 69.9001 42.0211 71.6648V73.0074H26.5565V70.1703H38.3101C38.3101 69.1739 38.1075 68.2916 37.7022 67.5232C37.2969 66.7464 36.7269 66.1342 35.9923 65.6867C35.2662 65.2392 34.4134 65.0154 33.4339 65.0154C32.37 65.0154 31.4412 65.2772 30.6475 65.8007C29.8622 66.3157 29.2543 66.9912 28.8236 67.8271C28.4014 68.6546 28.1904 69.5539 28.1904 70.5249V72.7414C28.1904 74.0417 28.4183 75.1478 28.8743 76.0598C29.3387 76.9717 29.9846 77.6683 30.8121 78.1496C31.6396 78.6224 32.6064 78.8588 33.7125 78.8588C34.4302 78.8588 35.0846 78.7575 35.6757 78.5549C36.2668 78.3438 36.7776 78.0314 37.2082 77.6176C37.6389 77.2039 37.9682 76.693 38.1961 76.0851L41.7805 76.731C41.4934 77.7865 40.9783 78.7111 40.2353 79.5048C39.5007 80.2901 38.5761 80.9022 37.4615 81.3413C36.3554 81.7719 35.0931 81.9872 33.6745 81.9872ZM51.8844 82.0252C50.6517 82.0252 49.5371 81.7973 48.5407 81.3413C47.5444 80.8769 46.7549 80.2056 46.1723 79.3275C45.5981 78.4493 45.311 77.3728 45.311 76.0978C45.311 75.0001 45.5221 74.0966 45.9443 73.3873C46.3665 72.6781 46.9364 72.1165 47.6541 71.7028C48.3719 71.2891 49.174 70.9767 50.0606 70.7656C50.9472 70.5545 51.8507 70.394 52.771 70.2843C53.9363 70.1492 54.8819 70.0394 55.6081 69.955C56.3343 69.8621 56.862 69.7143 57.1913 69.5117C57.5206 69.309 57.6853 68.9797 57.6853 68.5238V68.4351C57.6853 67.329 57.3728 66.4719 56.748 65.864C56.1316 65.256 55.2113 64.9521 53.9869 64.9521C52.7119 64.9521 51.7071 65.2349 50.9725 65.8007C50.2464 66.3579 49.744 66.9786 49.4653 67.6625L45.9063 66.8519C46.3285 65.6698 46.9449 64.7156 47.7555 63.9895C48.5745 63.2549 49.516 62.7229 50.5799 62.3936C51.6438 62.0559 52.7626 61.887 53.9363 61.887C54.7131 61.887 55.5363 61.9799 56.406 62.1656C57.2842 62.343 58.1032 62.6723 58.8632 63.1536C59.6315 63.6349 60.2606 64.323 60.7503 65.218C61.2401 66.1046 61.4849 67.2572 61.4849 68.6757V81.5946H57.7866V78.9348H57.6346C57.3897 79.4246 57.0224 79.9059 56.5327 80.3787C56.043 80.8516 55.4139 81.2442 54.6455 81.5566C53.8771 81.869 52.9568 82.0252 51.8844 82.0252ZM52.7077 78.9855C53.7547 78.9855 54.6497 78.7786 55.3928 78.3649C56.1443 77.9511 56.7142 77.4108 57.1026 76.7437C57.4995 76.0682 57.6979 75.3463 57.6979 74.5779V72.0701C57.5628 72.2052 57.3011 72.3319 56.9127 72.4501C56.5327 72.5598 56.0978 72.6569 55.6081 72.7414C55.1184 72.8174 54.6413 72.8891 54.1769 72.9567C53.7125 73.0158 53.3241 73.0665 53.0117 73.1087C52.2771 73.2016 51.6058 73.3578 50.9978 73.5773C50.3983 73.7968 49.9171 74.1135 49.554 74.5272C49.1993 74.9325 49.022 75.4729 49.022 76.1484C49.022 77.0857 49.3682 77.7949 50.0606 78.2762C50.753 78.7491 51.6353 78.9855 52.7077 78.9855ZM70.316 55.6556V81.5946H66.529V55.6556H70.316ZM85.1537 81.5946V55.6556H101.416V59.0246H89.0673V66.9279H100.568V70.2843H89.0673V78.2256H101.568V81.5946H85.1537ZM120.918 66.8899L117.486 67.4978C117.342 67.0588 117.114 66.6408 116.802 66.244C116.498 65.8471 116.084 65.522 115.561 65.2687C115.037 65.0154 114.383 64.8887 113.597 64.8887C112.525 64.8887 111.63 65.1294 110.912 65.6107C110.195 66.0835 109.836 66.6957 109.836 67.4472C109.836 68.0973 110.076 68.6209 110.558 69.0177C111.039 69.4146 111.816 69.7396 112.888 69.993L115.978 70.7022C117.769 71.116 119.103 71.7535 119.981 72.6147C120.859 73.476 121.298 74.5948 121.298 75.9711C121.298 77.1363 120.96 78.1749 120.285 79.0868C119.618 79.9903 118.685 80.6996 117.486 81.2146C116.295 81.7297 114.915 81.9872 113.344 81.9872C111.166 81.9872 109.388 81.5228 108.012 80.594C106.636 79.6568 105.791 78.3269 105.479 76.6044L109.139 76.0471C109.367 77.0012 109.836 77.7232 110.545 78.2129C111.254 78.6942 112.179 78.9348 113.319 78.9348C114.56 78.9348 115.552 78.6773 116.295 78.1622C117.038 77.6387 117.41 77.0012 117.41 76.2497C117.41 75.6418 117.182 75.131 116.726 74.7172C116.278 74.3035 115.59 73.9911 114.661 73.78L111.368 73.058C109.553 72.6443 108.21 71.9857 107.341 71.0822C106.479 70.1787 106.049 69.0346 106.049 67.6498C106.049 66.5015 106.37 65.4967 107.011 64.6354C107.653 63.7742 108.54 63.1029 109.671 62.6216C110.802 62.1319 112.099 61.887 113.559 61.887C115.662 61.887 117.317 62.343 118.524 63.2549C119.732 64.1584 120.53 65.37 120.918 66.8899ZM134.543 62.1403V65.18H123.917V62.1403H134.543ZM126.766 57.4794H130.553V75.8824C130.553 76.617 130.663 77.1701 130.883 77.5416C131.102 77.9047 131.385 78.1538 131.731 78.2889C132.086 78.4156 132.47 78.4789 132.884 78.4789C133.188 78.4789 133.454 78.4578 133.682 78.4156C133.91 78.3733 134.087 78.3396 134.214 78.3142L134.898 81.4426C134.678 81.5271 134.366 81.6115 133.96 81.6959C133.555 81.7888 133.048 81.8395 132.441 81.8479C131.444 81.8648 130.515 81.6875 129.654 81.316C128.793 80.9444 128.096 80.3703 127.564 79.5934C127.032 78.8166 126.766 77.8414 126.766 76.6677V57.4794ZM144.394 82.0252C143.161 82.0252 142.046 81.7973 141.05 81.3413C140.054 80.8769 139.264 80.2056 138.681 79.3275C138.107 78.4493 137.82 77.3728 137.82 76.0978C137.82 75.0001 138.031 74.0966 138.453 73.3873C138.876 72.6781 139.446 72.1165 140.163 71.7028C140.881 71.2891 141.683 70.9767 142.57 70.7656C143.456 70.5545 144.36 70.394 145.28 70.2843C146.445 70.1492 147.391 70.0394 148.117 69.955C148.843 69.8621 149.371 69.7143 149.7 69.5117C150.03 69.309 150.194 68.9797 150.194 68.5238V68.4351C150.194 67.329 149.882 66.4719 149.257 65.864C148.641 65.256 147.72 64.9521 146.496 64.9521C145.221 64.9521 144.216 65.2349 143.482 65.8007C142.756 66.3579 142.253 66.9786 141.975 67.6625L138.415 66.8519C138.838 65.6698 139.454 64.7156 140.265 63.9895C141.084 63.2549 142.025 62.7229 143.089 62.3936C144.153 62.0559 145.272 61.887 146.445 61.887C147.222 61.887 148.046 61.9799 148.915 62.1656C149.793 62.343 150.612 62.6723 151.372 63.1536C152.141 63.6349 152.77 64.323 153.26 65.218C153.749 66.1046 153.994 67.2572 153.994 68.6757V81.5946H150.296V78.9348H150.144C149.899 79.4246 149.532 79.9059 149.042 80.3787C148.552 80.8516 147.923 81.2442 147.155 81.5566C146.386 81.869 145.466 82.0252 144.394 82.0252ZM145.217 78.9855C146.264 78.9855 147.159 78.7786 147.902 78.3649C148.653 77.9511 149.223 77.4108 149.612 76.7437C150.009 76.0682 150.207 75.3463 150.207 74.5779V72.0701C150.072 72.2052 149.81 72.3319 149.422 72.4501C149.042 72.5598 148.607 72.6569 148.117 72.7414C147.628 72.8174 147.151 72.8891 146.686 72.9567C146.222 73.0158 145.833 73.0665 145.521 73.1087C144.786 73.2016 144.115 73.3578 143.507 73.5773C142.908 73.7968 142.426 74.1135 142.063 74.5272C141.709 74.9325 141.531 75.4729 141.531 76.1484C141.531 77.0857 141.877 77.7949 142.57 78.2762C143.262 78.7491 144.145 78.9855 145.217 78.9855ZM168.119 62.1403V65.18H157.493V62.1403H168.119ZM160.343 57.4794H164.13V75.8824C164.13 76.617 164.239 77.1701 164.459 77.5416C164.679 77.9047 164.961 78.1538 165.308 78.2889C165.662 78.4156 166.046 78.4789 166.46 78.4789C166.764 78.4789 167.03 78.4578 167.258 78.4156C167.486 78.3733 167.663 78.3396 167.79 78.3142L168.474 81.4426C168.254 81.5271 167.942 81.6115 167.537 81.6959C167.131 81.7888 166.625 81.8395 166.017 81.8479C165.021 81.8648 164.092 81.6875 163.23 81.316C162.369 80.9444 161.673 80.3703 161.141 79.5934C160.609 78.8166 160.343 77.8414 160.343 76.6677V57.4794ZM180.484 81.9872C178.567 81.9872 176.917 81.5777 175.532 80.7587C174.156 79.9312 173.092 78.7702 172.34 77.2757C171.597 75.7727 171.226 74.0122 171.226 71.9941C171.226 70.0014 171.597 68.2451 172.34 66.7252C173.092 65.2054 174.139 64.019 175.481 63.1662C176.832 62.3134 178.411 61.887 180.218 61.887C181.316 61.887 182.38 62.0685 183.41 62.4316C184.44 62.7947 185.365 63.3647 186.184 64.1415C187.003 64.9183 187.649 65.9273 188.121 67.1685C188.594 68.4013 188.831 69.9001 188.831 71.6648V73.0074H173.366V70.1703H185.12C185.12 69.1739 184.917 68.2916 184.512 67.5232C184.106 66.7464 183.537 66.1342 182.802 65.6867C182.076 65.2392 181.223 65.0154 180.243 65.0154C179.18 65.0154 178.251 65.2772 177.457 65.8007C176.672 66.3157 176.064 66.9912 175.633 67.8271C175.211 68.6546 175 69.5539 175 70.5249V72.7414C175 74.0417 175.228 75.1478 175.684 76.0598C176.148 76.9717 176.794 77.6683 177.622 78.1496C178.449 78.6224 179.416 78.8588 180.522 78.8588C181.24 78.8588 181.894 78.7575 182.485 78.5549C183.076 78.3438 183.587 78.0314 184.018 77.6176C184.448 77.2039 184.778 76.693 185.006 76.0851L188.59 76.731C188.303 77.7865 187.788 78.7111 187.045 79.5048C186.31 80.2901 185.386 80.9022 184.271 81.3413C183.165 81.7719 181.903 81.9872 180.484 81.9872Z" fill="#1C232A"/>
</g>
<defs>
<clipPath id="clip0_4_15">
<rect width="192.811" height="84.6487" fill="white" transform="translate(0 0.567566)"/>
</clipPath>
</defs>
</svg>
