<svg width="522" height="57" viewBox="0 0 522 57" fill="none" xmlns="http://www.w3.org/2000/svg">
<g clip-path="url(#clip0_2_13)">
<path d="M25.8315 11.6536C25.6711 10.0371 24.9831 8.78125 23.7674 7.88613C22.5516 6.99102 20.9016 6.54346 18.8175 6.54346C17.4013 6.54346 16.2056 6.74386 15.2303 7.14466C14.2551 7.5321 13.5069 8.07317 12.9859 8.76789C12.4782 9.46261 12.2244 10.2508 12.2244 11.1326C12.1976 11.8674 12.3513 12.5087 12.6853 13.0564C13.0326 13.6042 13.5069 14.0785 14.1081 14.4793C14.7093 14.8667 15.404 15.2074 16.1923 15.5013C16.9805 15.7819 17.8222 16.0223 18.7173 16.2227L22.4046 17.1045C24.1949 17.5053 25.8381 18.0397 27.3345 18.7077C28.8308 19.3757 30.1267 20.1973 31.2222 21.1726C32.3177 22.1479 33.1661 23.2968 33.7673 24.6195C34.3818 25.9421 34.6958 27.4585 34.7092 29.1685C34.6958 31.6802 34.0545 33.8579 32.7853 35.7016C31.5295 37.5319 29.7125 38.9547 27.3345 39.9701C24.9697 40.9721 22.1174 41.473 18.7774 41.473C15.4641 41.473 12.5784 40.9654 10.1202 39.95C7.67529 38.9347 5.76482 37.4317 4.38874 35.441C3.02603 33.437 2.31127 30.9588 2.24447 28.0062H10.6412C10.7347 29.3823 11.1288 30.5312 11.8236 31.4531C12.5316 32.3616 13.4735 33.0496 14.6492 33.5172C15.8382 33.9714 17.1809 34.1986 18.6772 34.1986C20.1468 34.1986 21.4227 33.9848 22.5048 33.5573C23.6004 33.1298 24.4487 32.5352 25.0499 31.7737C25.6511 31.0122 25.9517 30.1371 25.9517 29.1485C25.9517 28.2267 25.6778 27.4518 25.1301 26.8239C24.5957 26.1959 23.8074 25.6615 22.7654 25.2207C21.7366 24.7798 20.4741 24.379 18.9778 24.0183L14.5089 22.896C11.0487 22.0544 8.31657 20.7384 6.31258 18.9482C4.30858 17.1579 3.31327 14.7465 3.32663 11.7138C3.31327 9.22881 3.97459 7.05782 5.31058 5.20078C6.65994 3.34375 8.51029 1.8942 10.8616 0.852119C13.213 -0.189957 15.885 -0.710995 18.8776 -0.710995C21.9237 -0.710995 24.5823 -0.189957 26.8535 0.852119C29.1381 1.8942 30.9149 3.34375 32.1841 5.20078C33.4533 7.05782 34.108 9.20877 34.148 11.6536H25.8315ZM49.1629 41.473C47.199 41.473 45.4489 41.1324 43.9125 40.451C42.3761 39.7563 41.1603 38.7343 40.2652 37.3849C39.3835 36.0222 38.9426 34.3255 38.9426 32.2948C38.9426 30.5847 39.2565 29.1485 39.8845 27.9862C40.5124 26.8239 41.3674 25.8887 42.4496 25.1806C43.5317 24.4725 44.7608 23.9381 46.1369 23.5774C47.5264 23.2167 48.9826 22.9628 50.5056 22.8159C52.2959 22.6288 53.7387 22.4552 54.8342 22.2948C55.9298 22.1212 56.7247 21.8673 57.219 21.5333C57.7133 21.1993 57.9605 20.705 57.9605 20.0504V19.9301C57.9605 18.6609 57.5597 17.679 56.7581 16.9843C55.9698 16.2895 54.8476 15.9422 53.3914 15.9422C51.855 15.9422 50.6325 16.2829 49.7241 16.9642C48.8156 17.6322 48.2144 18.4739 47.9205 19.4893L40.0247 18.848C40.4255 16.9776 41.2138 15.361 42.3895 13.9983C43.5651 12.6222 45.0815 11.5668 46.9385 10.832C48.8089 10.0838 50.9732 9.70977 53.4315 9.70977C55.1415 9.70977 56.7781 9.91017 58.3412 10.311C59.9177 10.7118 61.3138 11.333 62.5296 12.1747C63.7587 13.0164 64.7273 14.0985 65.4354 15.4211C66.1434 16.7304 66.4975 18.3002 66.4975 20.1305V40.8919H58.4014V36.6234H58.1609C57.6666 37.5853 57.0052 38.4337 56.1769 39.1685C55.3486 39.8899 54.3533 40.4577 53.191 40.8719C52.0287 41.2727 50.686 41.473 49.1629 41.473ZM51.6078 35.5813C52.8637 35.5813 53.9725 35.3342 54.9344 34.8398C55.8964 34.3322 56.6512 33.6508 57.199 32.7958C57.7467 31.9407 58.0206 30.9721 58.0206 29.89V26.6235C57.7534 26.7971 57.386 26.9575 56.9184 27.1044C56.4642 27.238 55.9498 27.3649 55.3753 27.4852C54.8008 27.5921 54.2264 27.6923 53.6519 27.7858C53.0774 27.8659 52.5564 27.9394 52.0888 28.0062C51.0868 28.1532 50.2117 28.387 49.4635 28.7076C48.7154 29.0283 48.1342 29.4625 47.7201 30.0102C47.3059 30.5446 47.0988 31.2126 47.0988 32.0142C47.0988 33.1765 47.5197 34.065 48.3613 34.6795C49.2164 35.2807 50.2985 35.5813 51.6078 35.5813ZM73.1207 40.8919V10.1106H81.2569V15.5414H81.6176C82.2589 13.7378 83.3277 12.315 84.824 11.2729C86.3203 10.2308 88.1105 9.70977 90.1947 9.70977C92.3056 9.70977 94.1025 10.2375 95.5854 11.2929C97.0684 12.335 98.057 13.7512 98.5513 15.5414H98.872C99.4999 13.7779 100.635 12.3684 102.279 11.313C103.935 10.2442 105.893 9.70977 108.15 9.70977C111.023 9.70977 113.354 10.6249 115.144 12.4552C116.948 14.2722 117.85 16.8507 117.85 20.1906V40.8919H109.333V21.874C109.333 20.1639 108.879 18.8814 107.97 18.0263C107.062 17.1713 105.926 16.7438 104.563 16.7438C103.014 16.7438 101.804 17.2381 100.936 18.2267C100.068 19.202 99.6335 20.4912 99.6335 22.0944V40.8919H91.357V21.6936C91.357 20.184 90.9228 18.9816 90.0544 18.0865C89.1994 17.1913 88.0705 16.7438 86.6677 16.7438C85.7191 16.7438 84.8641 16.9843 84.1026 17.4652C83.3544 17.9328 82.7599 18.5941 82.319 19.4492C81.8781 20.2908 81.6577 21.2795 81.6577 22.4151V40.8919H73.1207ZM124.593 52.4349V10.1106H133.01V15.2809H133.391C133.765 14.4525 134.306 13.6109 135.014 12.7558C135.735 11.8874 136.671 11.166 137.82 10.5915C138.982 10.0037 140.425 9.70977 142.148 9.70977C144.393 9.70977 146.463 10.2976 148.361 11.4733C150.258 12.6356 151.774 14.3924 152.91 16.7438C154.045 19.0818 154.613 22.0143 154.613 25.5413C154.613 28.9748 154.059 31.8739 152.95 34.2386C151.854 36.59 150.358 38.3735 148.461 39.5893C146.577 40.7917 144.466 41.3929 142.128 41.3929C140.472 41.3929 139.062 41.119 137.9 40.5713C136.751 40.0235 135.809 39.3355 135.074 38.5071C134.339 37.6655 133.778 36.8171 133.391 35.9621H133.13V52.4349H124.593ZM132.95 25.5012C132.95 27.3315 133.204 28.9281 133.711 30.2908C134.219 31.6535 134.954 32.7156 135.916 33.4771C136.878 34.2253 138.047 34.5994 139.423 34.5994C140.812 34.5994 141.988 34.2186 142.95 33.4571C143.912 32.6822 144.64 31.6134 145.134 30.2507C145.642 28.8746 145.896 27.2915 145.896 25.5012C145.896 23.7244 145.649 22.1612 145.154 20.8119C144.66 19.4625 143.932 18.4071 142.97 17.6456C142.008 16.8841 140.826 16.5033 139.423 16.5033C138.033 16.5033 136.858 16.8707 135.896 17.6055C134.947 18.3403 134.219 19.3824 133.711 20.7317C133.204 22.0811 132.95 23.6709 132.95 25.5012ZM168.841 -0.149877V40.8919H160.304V-0.149877H168.841ZM189.708 41.4931C186.542 41.4931 183.816 40.8518 181.532 39.5693C179.26 38.2733 177.51 36.443 176.281 34.0783C175.052 31.7002 174.438 28.888 174.438 25.6415C174.438 22.4752 175.052 19.6963 176.281 17.3049C177.51 14.9135 179.24 13.0498 181.472 11.7138C183.716 10.3778 186.348 9.70977 189.367 9.70977C191.398 9.70977 193.288 10.0371 195.039 10.6917C196.802 11.333 198.338 12.3016 199.648 13.5975C200.97 14.8934 201.999 16.5233 202.734 18.4873C203.469 20.4378 203.836 22.7224 203.836 25.3409V27.6856H177.844V22.395H195.8C195.8 21.1659 195.533 20.0771 194.999 19.1285C194.464 18.18 193.723 17.4385 192.774 16.9041C191.839 16.3563 190.75 16.0825 189.508 16.0825C188.212 16.0825 187.063 16.3831 186.061 16.9843C185.072 17.5721 184.297 18.367 183.736 19.369C183.175 20.3576 182.888 21.4598 182.874 22.6756V27.7056C182.874 29.2287 183.155 30.5446 183.716 31.6535C184.29 32.7624 185.099 33.6174 186.141 34.2186C187.183 34.8198 188.419 35.1204 189.848 35.1204C190.797 35.1204 191.665 34.9868 192.453 34.7196C193.242 34.4524 193.916 34.0516 194.477 33.5172C195.039 32.9828 195.466 32.3282 195.76 31.5533L203.656 32.0743C203.255 33.9714 202.433 35.6281 201.191 37.0442C199.962 38.447 198.372 39.5425 196.421 40.3308C194.484 41.1057 192.246 41.4931 189.708 41.4931Z" fill="#4067E3"/>
<path d="M226.381 40.8919V-0.149877H241.01C244.19 -0.149877 246.828 0.397881 248.926 1.4934C251.037 2.58891 252.613 4.10527 253.655 6.04246C254.697 7.96629 255.218 10.1907 255.218 12.7158C255.218 15.2274 254.691 17.4385 253.635 19.349C252.593 21.2461 251.017 22.7224 248.906 23.7778C246.808 24.8332 244.17 25.3609 240.99 25.3609H229.908V20.0303H240.429C242.433 20.0303 244.063 19.7431 245.319 19.1686C246.588 18.5941 247.516 17.7591 248.104 16.6636C248.692 15.5681 248.986 14.2521 248.986 12.7158C248.986 11.166 248.685 9.82333 248.084 8.68773C247.496 7.55213 246.568 6.68374 245.299 6.08254C244.043 5.46798 242.393 5.1607 240.349 5.1607H232.573V40.8919H226.381ZM246.641 22.375L256.782 40.8919H249.728L239.788 22.375H246.641ZM275.153 41.5131C272.12 41.5131 269.509 40.8652 267.318 39.5693C265.14 38.26 263.457 36.423 262.268 34.0583C261.092 31.6802 260.504 28.8947 260.504 25.7016C260.504 22.5487 261.092 19.7698 262.268 17.365C263.457 14.9602 265.113 13.0832 267.237 11.7338C269.375 10.3844 271.873 9.70977 274.732 9.70977C276.469 9.70977 278.152 9.99701 279.782 10.5715C281.412 11.146 282.875 12.0478 284.171 13.2769C285.467 14.506 286.489 16.1025 287.237 18.0664C287.985 20.017 288.36 22.3884 288.36 25.1806V27.3048H263.891V22.8159H282.488C282.488 21.2394 282.167 19.8433 281.526 18.6275C280.885 17.3984 279.983 16.4298 278.82 15.7217C277.672 15.0137 276.322 14.6596 274.772 14.6596C273.089 14.6596 271.619 15.0738 270.364 15.9021C269.121 16.7171 268.159 17.7859 267.478 19.1085C266.81 20.4178 266.476 21.8406 266.476 23.377V26.884C266.476 28.9414 266.837 30.6916 267.558 32.1344C268.293 33.5773 269.315 34.6795 270.624 35.441C271.933 36.1892 273.463 36.5633 275.213 36.5633C276.349 36.5633 277.384 36.4029 278.319 36.0823C279.255 35.7483 280.063 35.254 280.744 34.5994C281.426 33.9447 281.947 33.1364 282.307 32.1745L287.979 33.1966C287.525 34.8666 286.71 36.3295 285.534 37.5853C284.372 38.8278 282.909 39.7964 281.145 40.4911C279.395 41.1725 277.398 41.5131 275.153 41.5131ZM303.966 41.5732C302.015 41.5732 300.252 41.2125 298.675 40.4911C297.099 39.7563 295.849 38.6942 294.928 37.3047C294.019 35.9153 293.565 34.2119 293.565 32.1946C293.565 30.4578 293.899 29.0283 294.567 27.906C295.235 26.7838 296.137 25.8953 297.272 25.2407C298.408 24.5861 299.677 24.0918 301.08 23.7578C302.483 23.4238 303.912 23.1699 305.368 22.9962C307.212 22.7825 308.708 22.6088 309.857 22.4752C311.006 22.3282 311.841 22.0944 312.362 21.7738C312.883 21.4532 313.144 20.9321 313.144 20.2107V20.0704C313.144 18.3203 312.65 16.9642 311.661 16.0023C310.686 15.0404 309.229 14.5594 307.292 14.5594C305.275 14.5594 303.685 15.007 302.523 15.9021C301.374 16.7839 300.579 17.7658 300.138 18.848L294.507 17.5654C295.175 15.695 296.15 14.1854 297.433 13.0364C298.729 11.8741 300.218 11.0324 301.901 10.5114C303.585 9.97697 305.355 9.70977 307.212 9.70977C308.441 9.70977 309.744 9.85673 311.12 10.1506C312.509 10.4312 313.805 10.9522 315.008 11.7138C316.223 12.4753 317.219 13.5641 317.994 14.9803C318.768 16.3831 319.156 18.2067 319.156 20.4512V40.8919H313.304V36.6835H313.064C312.676 37.4584 312.095 38.2199 311.32 38.9681C310.545 39.7162 309.55 40.3375 308.334 40.8318C307.119 41.3261 305.662 41.5732 303.966 41.5732ZM305.268 36.7637C306.925 36.7637 308.341 36.4363 309.517 35.7817C310.706 35.1271 311.608 34.272 312.222 33.2166C312.85 32.1478 313.164 31.0055 313.164 29.7898V25.8219C312.95 26.0356 312.536 26.236 311.921 26.4231C311.32 26.5967 310.632 26.7504 309.857 26.884C309.082 27.0042 308.328 27.1178 307.593 27.2247C306.858 27.3182 306.243 27.3983 305.749 27.4651C304.587 27.6121 303.525 27.8593 302.563 28.2066C301.614 28.554 300.853 29.055 300.278 29.7096C299.717 30.3509 299.437 31.2059 299.437 32.2747C299.437 33.7577 299.984 34.8799 301.08 35.6414C302.175 36.3896 303.571 36.7637 305.268 36.7637ZM333.129 -0.149877V40.8919H327.137V-0.149877H333.129ZM356.605 40.8919V-0.149877H382.337V5.18074H362.798V17.6857H380.994V22.9962H362.798V35.5613H382.577V40.8919H356.605ZM413.193 17.6255L407.762 18.5875C407.535 17.8927 407.175 17.2314 406.68 16.6035C406.199 15.9756 405.545 15.4612 404.716 15.0604C403.888 14.6596 402.853 14.4592 401.61 14.4592C399.913 14.4592 398.497 14.84 397.362 15.6015C396.226 16.3497 395.658 17.3183 395.658 18.5073C395.658 19.536 396.039 20.3643 396.801 20.9922C397.562 21.6202 398.791 22.1345 400.488 22.5353L405.378 23.6576C408.21 24.3122 410.321 25.3209 411.71 26.6836C413.1 28.0463 413.794 29.8165 413.794 31.9942C413.794 33.8378 413.26 35.4811 412.191 36.924C411.136 38.3535 409.659 39.4757 407.762 40.2907C405.879 41.1057 403.694 41.5131 401.209 41.5131C397.762 41.5131 394.95 40.7783 392.773 39.3087C390.595 37.8258 389.259 35.7216 388.765 32.9962L394.556 32.1144C394.917 33.6241 395.658 34.7664 396.78 35.5412C397.903 36.3027 399.366 36.6835 401.169 36.6835C403.133 36.6835 404.703 36.276 405.879 35.4611C407.054 34.6328 407.642 33.6241 407.642 32.435C407.642 31.4731 407.281 30.6648 406.56 30.0102C405.852 29.3556 404.763 28.8613 403.293 28.5273L398.083 27.385C395.211 26.7303 393.086 25.6883 391.71 24.2588C390.348 22.8292 389.666 21.019 389.666 18.8279C389.666 17.011 390.174 15.4211 391.189 14.0584C392.205 12.6957 393.608 11.6336 395.398 10.8721C397.188 10.0972 399.239 9.70977 401.55 9.70977C404.877 9.70977 407.495 10.4312 409.406 11.8741C411.316 13.3036 412.579 15.2207 413.193 17.6255ZM434.751 10.1106V14.9201H417.938V10.1106H434.751ZM422.447 2.73587H428.439V31.8539C428.439 33.0162 428.612 33.8913 428.96 34.4791C429.307 35.0536 429.755 35.4477 430.302 35.6615C430.863 35.8619 431.471 35.9621 432.126 35.9621C432.607 35.9621 433.028 35.9287 433.388 35.8619C433.749 35.7951 434.03 35.7416 434.23 35.7016L435.312 40.6514C434.965 40.785 434.471 40.9186 433.829 41.0522C433.188 41.1992 432.386 41.2793 431.425 41.2927C429.848 41.3194 428.378 41.0389 427.016 40.451C425.653 39.8632 424.551 38.9547 423.709 37.7256C422.867 36.4965 422.447 34.9534 422.447 33.0964V2.73587ZM450.337 41.5732C448.387 41.5732 446.623 41.2125 445.047 40.4911C443.47 39.7563 442.221 38.6942 441.299 37.3047C440.391 35.9153 439.936 34.2119 439.936 32.1946C439.936 30.4578 440.27 29.0283 440.938 27.906C441.606 26.7838 442.508 25.8953 443.644 25.2407C444.779 24.5861 446.049 24.0918 447.451 23.7578C448.854 23.4238 450.284 23.1699 451.74 22.9962C453.584 22.7825 455.08 22.6088 456.229 22.4752C457.378 22.3282 458.213 22.0944 458.734 21.7738C459.255 21.4532 459.516 20.9321 459.516 20.2107V20.0704C459.516 18.3203 459.021 16.9642 458.033 16.0023C457.057 15.0404 455.601 14.5594 453.664 14.5594C451.646 14.5594 450.057 15.007 448.894 15.9021C447.745 16.7839 446.95 17.7658 446.51 18.848L440.878 17.5654C441.546 15.695 442.522 14.1854 443.804 13.0364C445.1 11.8741 446.59 11.0324 448.273 10.5114C449.956 9.97697 451.727 9.70977 453.584 9.70977C454.813 9.70977 456.115 9.85673 457.491 10.1506C458.881 10.4312 460.177 10.9522 461.379 11.7138C462.595 12.4753 463.59 13.5641 464.365 14.9803C465.14 16.3831 465.527 18.2067 465.527 20.4512V40.8919H459.676V36.6835H459.435C459.048 37.4584 458.467 38.2199 457.692 38.9681C456.917 39.7162 455.922 40.3375 454.706 40.8318C453.49 41.3261 452.034 41.5732 450.337 41.5732ZM451.64 36.7637C453.296 36.7637 454.713 36.4363 455.888 35.7817C457.077 35.1271 457.979 34.272 458.594 33.2166C459.222 32.1478 459.536 31.0055 459.536 29.7898V25.8219C459.322 26.0356 458.908 26.236 458.293 26.4231C457.692 26.5967 457.004 26.7504 456.229 26.884C455.454 27.0042 454.699 27.1178 453.964 27.2247C453.23 27.3182 452.615 27.3983 452.121 27.4651C450.958 27.6121 449.896 27.8593 448.934 28.2066C447.986 28.554 447.224 29.055 446.65 29.7096C446.089 30.3509 445.808 31.2059 445.808 32.2747C445.808 33.7577 446.356 34.8799 447.451 35.6414C448.547 36.3896 449.943 36.7637 451.64 36.7637ZM487.877 10.1106V14.9201H471.064V10.1106H487.877ZM475.572 2.73587H481.564V31.8539C481.564 33.0162 481.738 33.8913 482.085 34.4791C482.433 35.0536 482.88 35.4477 483.428 35.6615C483.989 35.8619 484.597 35.9621 485.252 35.9621C485.733 35.9621 486.154 35.9287 486.514 35.8619C486.875 35.7951 487.156 35.7416 487.356 35.7016L488.438 40.6514C488.091 40.785 487.596 40.9186 486.955 41.0522C486.314 41.1992 485.512 41.2793 484.55 41.2927C482.974 41.3194 481.504 41.0389 480.142 40.451C478.779 39.8632 477.677 38.9547 476.835 37.7256C475.993 36.4965 475.572 34.9534 475.572 33.0964V2.73587ZM507.441 41.5131C504.408 41.5131 501.796 40.8652 499.605 39.5693C497.428 38.26 495.744 36.423 494.555 34.0583C493.38 31.6802 492.792 28.8947 492.792 25.7016C492.792 22.5487 493.38 19.7698 494.555 17.365C495.744 14.9602 497.401 13.0832 499.525 11.7338C501.663 10.3844 504.161 9.70977 507.02 9.70977C508.757 9.70977 510.44 9.99701 512.07 10.5715C513.7 11.146 515.163 12.0478 516.459 13.2769C517.755 14.506 518.777 16.1025 519.525 18.0664C520.273 20.017 520.647 22.3884 520.647 25.1806V27.3048H496.179V22.8159H514.776C514.776 21.2394 514.455 19.8433 513.814 18.6275C513.172 17.3984 512.271 16.4298 511.108 15.7217C509.959 15.0137 508.61 14.6596 507.06 14.6596C505.377 14.6596 503.907 15.0738 502.651 15.9021C501.409 16.7171 500.447 17.7859 499.766 19.1085C499.098 20.4178 498.764 21.8406 498.764 23.377V26.884C498.764 28.9414 499.124 30.6916 499.846 32.1344C500.581 33.5773 501.603 34.6795 502.912 35.441C504.221 36.1892 505.751 36.5633 507.501 36.5633C508.637 36.5633 509.672 36.4029 510.607 36.0823C511.542 35.7483 512.351 35.254 513.032 34.5994C513.713 33.9447 514.235 33.1364 514.595 32.1745L520.267 33.1966C519.812 34.8666 518.997 36.3295 517.822 37.5853C516.659 38.8278 515.196 39.7964 513.433 40.4911C511.683 41.1725 509.685 41.5131 507.441 41.5131Z" fill="#1C232A"/>
</g>
<defs>
<clipPath id="clip0_2_13">
<rect width="522" height="56.4324" fill="white"/>
</clipPath>
</defs>
</svg>
